<?xml version="1.0" encoding="UTF-8"?><svg id="a" xmlns="http://www.w3.org/2000/svg" viewBox="0 0 574.64 272.52"><defs><style>.b{fill:none;stroke:#fff;stroke-miterlimit:10;stroke-width:8px;}</style></defs><rect class="b" x="4" y="4" width="566.64" height="264.52" rx="39.1" ry="39.1"/><path class="b" d="M276.06,83.23c0,17.12-12.69,31-28.36,31H43.98v-62.01h203.72c15.67,0,28.36,13.88,28.36,31.01Z"/><path class="b" d="M530.66,67.73c0,8.56-7.27,15.5-16.25,15.5h-215.83v-31h215.83c8.97,0,16.25,6.94,16.25,15.5Z"/><path class="b" d="M530.66,98.73c0,8.56-7.27,15.5-16.25,15.5h-215.83v-31h215.83c8.97,0,16.25,6.94,16.25,15.5Z"/><path class="b" d="M85.12,220.3c-22.73,0-41.14-18.45-41.14-41.22s18.42-41.22,41.14-41.22"/><line class="b" x1="85.12" y1="137.86" x2="531.56" y2="137.86"/><line class="b" x1="82.63" y1="220.3" x2="530.68" y2="220.3"/></svg>